<svg width="56" height="56" viewBox="0 0 56 56" fill="none" xmlns="http://www.w3.org/2000/svg">
<path d="M28.1094 24.8828H30.8438C31.7498 24.8828 32.4844 24.1483 32.4844 23.2422C32.4844 22.3361 31.7498 21.6016 30.8438 21.6016H28.1094C27.2033 21.6016 26.4688 22.3361 26.4688 23.2422C26.4688 24.1483 27.2033 24.8828 28.1094 24.8828Z" fill="#15404E"/>
<path d="M21.1094 21.6016H18.375C17.4689 21.6016 16.7344 22.3361 16.7344 23.2422C16.7344 24.1483 17.4689 24.8828 18.375 24.8828H21.1094C22.0154 24.8828 22.75 24.1483 22.75 23.2422C22.75 22.3361 22.0154 21.6016 21.1094 21.6016Z" fill="#15404E"/>
<path d="M37.8438 24.8828H40.5781C41.4842 24.8828 42.2188 24.1483 42.2188 23.2422C42.2188 22.3361 41.4842 21.6016 40.5781 21.6016H37.8438C36.9377 21.6016 36.2031 22.3361 36.2031 23.2422C36.2031 24.1483 36.9377 24.8828 37.8438 24.8828Z" fill="#15404E"/>
<path d="M11.375 28.9844H8.64062C7.73456 28.9844 7 29.7189 7 30.625C7 31.5311 7.73456 32.2656 8.64062 32.2656H11.375C12.2811 32.2656 13.0156 31.5311 13.0156 30.625C13.0156 29.7189 12.2811 28.9844 11.375 28.9844Z" fill="#15404E"/>
<path d="M21.1094 28.9844H18.375C17.4689 28.9844 16.7344 29.7189 16.7344 30.625C16.7344 31.5311 17.4689 32.2656 18.375 32.2656H21.1094C22.0154 32.2656 22.75 31.5311 22.75 30.625C22.75 29.7189 22.0154 28.9844 21.1094 28.9844Z" fill="#15404E"/>
<path d="M32.4844 30.625C32.4844 29.7189 31.7498 28.9844 30.8438 28.9844H28.1094C27.2033 28.9844 26.4688 29.7189 26.4688 30.625C26.4688 31.5311 27.2033 32.2656 28.1094 32.2656H30.8438C31.7498 32.2656 32.4844 31.5311 32.4844 30.625Z" fill="#15404E"/>
<path d="M11.375 36.3672H8.64062C7.73456 36.3672 7 37.1017 7 38.0078C7 38.9139 7.73456 39.6484 8.64062 39.6484H11.375C12.2811 39.6484 13.0156 38.9139 13.0156 38.0078C13.0156 37.1017 12.2811 36.3672 11.375 36.3672Z" fill="#15404E"/>
<path d="M21.1094 36.3672H18.375C17.4689 36.3672 16.7344 37.1017 16.7344 38.0078C16.7344 38.9139 17.4689 39.6484 18.375 39.6484H21.1094C22.0154 39.6484 22.75 38.9139 22.75 38.0078C22.75 37.1017 22.0154 36.3672 21.1094 36.3672Z" fill="#15404E"/>
<path d="M49.2188 30.5239V9.29688C49.2188 5.97986 46.5201 3.28125 43.2031 3.28125H40.0312V1.64062C40.0312 0.734562 39.2967 0 38.3906 0C37.4846 0 36.75 0.734562 36.75 1.64062V3.28125H30.8438V1.64062C30.8438 0.734562 30.1092 0 29.2031 0C28.2971 0 27.5625 0.734562 27.5625 1.64062V3.28125H21.6562V1.64062C21.6562 0.734562 20.9217 0 20.0156 0C19.1096 0 18.375 0.734562 18.375 1.64062V3.28125H12.4688V1.64062C12.4688 0.734562 11.7342 0 10.8281 0C9.92206 0 9.1875 0.734562 9.1875 1.64062V3.28125H6.01562C2.69861 3.28125 0 5.97986 0 9.29688V42.1094C0 44.8233 2.20795 47.0312 4.92188 47.0312H29.4899C31.4114 52.2599 36.4412 56 42.3281 56C49.8668 56 56 49.8668 56 42.3281C56 37.3007 53.2719 32.899 49.2188 30.5239ZM3.28125 9.29688C3.28125 7.78914 4.50789 6.5625 6.01562 6.5625H9.1875V8.20312C9.1875 9.10919 9.92206 9.84375 10.8281 9.84375C11.7342 9.84375 12.4688 9.10919 12.4688 8.20312V6.5625H18.375V8.20312C18.375 9.10919 19.1096 9.84375 20.0156 9.84375C20.9217 9.84375 21.6562 9.10919 21.6562 8.20312V6.5625H27.5625V8.20312C27.5625 9.10919 28.2971 9.84375 29.2031 9.84375C30.1092 9.84375 30.8438 9.10919 30.8438 8.20312V6.5625H36.75V8.20312C36.75 9.10919 37.4846 9.84375 38.3906 9.84375C39.2967 9.84375 40.0312 9.10919 40.0312 8.20312V6.5625H43.2031C44.7109 6.5625 45.9375 7.78914 45.9375 9.29688V14.2188H3.28125V9.29688ZM4.92188 43.75C4.01723 43.75 3.28125 43.014 3.28125 42.1094V17.5H45.9375V29.1408C44.7872 28.8256 43.5771 28.6562 42.3281 28.6562C34.7895 28.6562 28.6562 34.7895 28.6562 42.3281C28.6562 42.8082 28.6814 43.2825 28.73 43.75H4.92188ZM42.3281 52.7188C36.5987 52.7188 31.9375 48.0575 31.9375 42.3281C31.9375 36.5987 36.5987 31.9375 42.3281 31.9375C48.0575 31.9375 52.7188 36.5987 52.7188 42.3281C52.7188 48.0575 48.0575 52.7188 42.3281 52.7188Z" fill="#15404E"/>
<path d="M47.7969 40.6875H43.9688V36.8594C43.9688 35.9533 43.2342 35.2188 42.3281 35.2188C41.4221 35.2188 40.6875 35.9533 40.6875 36.8594V42.3281C40.6875 43.2342 41.4221 43.9688 42.3281 43.9688H47.7969C48.7029 43.9688 49.4375 43.2342 49.4375 42.3281C49.4375 41.4221 48.7029 40.6875 47.7969 40.6875Z" fill="#15404E"/>
</svg>
