<svg width="70" height="70" viewBox="0 0 70 70" fill="none" xmlns="http://www.w3.org/2000/svg">
<path d="M61.6105 21.9382C62.4332 10.0565 52.9915 0 41.1523 0C34.0977 0 27.5882 3.60978 23.8338 9.5215C14.8455 5.25383 4.50898 13.0063 6.44424 23.0176C2.43127 25.6581 0 30.1122 0 35C0 42.9156 6.43986 49.3555 14.3555 49.3555H16.543V67.9492C16.543 69.0818 17.4612 70 18.5938 70H51.4062C52.5388 70 53.457 69.0818 53.457 67.9492V49.3555H55.6445C63.5601 49.3555 70 42.9156 70 35C70 29.3048 66.6909 24.2478 61.6105 21.9382ZM49.3555 65.8984H20.6445V28.8477H38.418V37.8711C38.418 39.0011 39.3341 39.9219 40.4688 39.9219C40.4772 39.9219 40.4858 39.9219 40.4945 39.9217L49.3556 39.811V65.8984H49.3555ZM46.5162 35.7446L42.5195 35.7946V31.748L46.5162 35.7446ZM55.6445 45.2539H53.457V37.7344C53.457 37.7301 53.4565 37.7259 53.4563 37.7217C53.4563 37.7173 53.4569 37.713 53.4569 37.7087C53.4505 37.1973 53.2422 36.67 52.8563 36.2842L41.9192 25.3471C41.545 24.9728 41.026 24.7461 40.4688 24.7461H18.5938C17.4612 24.7461 16.543 25.6643 16.543 26.7969V45.2539H14.3555C8.70146 45.2539 4.10156 40.654 4.10156 35C4.10156 31.1038 6.26514 27.593 9.74777 25.8374C10.6621 25.3765 11.0964 24.3117 10.7652 23.3429C8.15787 15.712 16.9656 9.34678 23.3893 14.0081C24.4178 14.7543 25.8709 14.394 26.4327 13.2561C29.2205 7.60936 34.8607 4.10156 41.1523 4.10156C51.1055 4.10156 58.8812 12.9737 57.3742 22.9748C57.2242 23.9697 57.8182 24.9264 58.7763 25.2334C63.0362 26.5982 65.8984 30.5231 65.8984 35C65.8984 40.654 61.2985 45.2539 55.6445 45.2539Z" fill="#15404E"/>
<path d="M43.2031 45.2539H26.7969C25.6643 45.2539 24.7461 46.1721 24.7461 47.3047C24.7461 48.4373 25.6643 49.3555 26.7969 49.3555H43.2031C44.3357 49.3555 45.2539 48.4373 45.2539 47.3047C45.2539 46.1721 44.3357 45.2539 43.2031 45.2539Z" fill="#15404E"/>
<path d="M43.2031 53.457H26.7969C25.6643 53.457 24.7461 54.3752 24.7461 55.5078C24.7461 56.6404 25.6643 57.5586 26.7969 57.5586H43.2031C44.3357 57.5586 45.2539 56.6404 45.2539 55.5078C45.2539 54.3752 44.3357 53.457 43.2031 53.457Z" fill="#15404E"/>
</svg>
