<svg width="56" height="56" viewBox="0 0 56 56" fill="none" xmlns="http://www.w3.org/2000/svg">
<g clip-path="url(#clip0_6435_1316)">
<path d="M15.702 12.2981H13.8353V10.4315C13.8353 9.52187 13.0979 8.78442 12.1883 8.78442C11.2786 8.78442 10.5412 9.52187 10.5412 10.4315V12.2981H8.67452C7.76491 12.2981 7.02747 13.0356 7.02747 13.9452C7.02747 14.8548 7.76491 15.5923 8.67452 15.5923H10.5412V17.4589C10.5412 18.3686 11.2786 19.106 12.1883 19.106C13.0979 19.106 13.8353 18.3686 13.8353 17.4589V15.5923H15.702C16.6116 15.5923 17.349 14.8548 17.349 13.9452C17.349 13.0356 16.6116 12.2981 15.702 12.2981Z" fill="#15404E"/>
<path d="M35.0279 23.498H47.326C48.2356 23.498 48.973 22.7605 48.973 21.8509C48.973 20.9413 48.2356 20.2039 47.326 20.2039H35.0279C34.1183 20.2039 33.3809 20.9413 33.3809 21.8509C33.3809 22.7605 34.1183 23.498 35.0279 23.498Z" fill="#15404E"/>
<path d="M35.0279 30.5256H47.326C48.2356 30.5256 48.973 29.7881 48.973 28.8785C48.973 27.9689 48.2356 27.2314 47.326 27.2314H35.0279C34.1183 27.2314 33.3809 27.9689 33.3809 28.8785C33.3809 29.7881 34.1183 30.5256 35.0279 30.5256Z" fill="#15404E"/>
<path d="M54.3529 3.51373H22.5732L20.556 0.689678C20.2469 0.256831 19.7477 0 19.2157 0H1.64706C0.737443 0 0 0.737443 0 1.64706V54.3529C0 55.2626 0.737443 56 1.64706 56H54.3529C55.2626 56 56 55.2626 56 54.3529C56 49.5272 56 10.7866 56 5.16078C56 4.25117 55.2626 3.51373 54.3529 3.51373ZM31.7904 52.7059H10.3216V49.2493C10.3216 39.679 21.9348 34.9483 28.6482 41.6581C30.6744 43.6844 31.7903 46.3803 31.7903 49.2493L31.7904 52.7059ZM16.5124 30.6771C16.5124 28.1717 18.5507 26.1333 21.0562 26.1333C23.5617 26.1333 25.6 28.1716 25.6 30.6771C25.6 33.1767 23.5677 35.2207 21.056 35.2207C18.5516 35.2207 16.5124 33.1833 16.5124 30.6771ZM52.7059 52.7059H35.0845V49.2493C35.0845 43.4024 31.5197 38.4224 26.4971 36.3108C31.5582 31.4214 28.0665 22.8392 21.0562 22.8392C14.0581 22.8392 10.5441 31.4217 15.6211 36.3164C10.577 38.4442 7.02745 43.4399 7.02745 49.2493V52.7059H3.29412V3.29412H18.368L26.6597 14.9025C26.9688 15.3353 27.468 15.5922 28 15.5922H52.7059V52.7059ZM52.7059 12.298H28.8477L24.9261 6.80784H52.7059V12.298Z" fill="#15404E"/>
</g>
<defs>
<clipPath id="clip0_6435_1316">
<rect width="56" height="56" fill="white"/>
</clipPath>
</defs>
</svg>
