<svg width="70" height="70" viewBox="0 0 70 70" fill="none" xmlns="http://www.w3.org/2000/svg">
<g clip-path="url(#clip0_6474_118)">
<path d="M70 25.4297C70 19.7757 65.4001 15.1758 59.7461 15.1758C54.0921 15.1758 49.4922 19.7757 49.4922 25.4297C49.4922 30.3815 53.0206 34.5245 57.6953 35.4773V43.2031C57.6953 45.0878 56.162 46.6211 54.2773 46.6211H45.1172V7.51953C45.1172 3.37326 41.7439 0 37.5977 0H7.51953C3.37326 0 0 3.37326 0 7.51953V62.4805C0 66.6267 3.37326 70 7.51953 70H37.5977C41.7439 70 45.1172 66.6267 45.1172 62.4805V50.7227H54.2773C58.4236 50.7227 61.7969 47.3494 61.7969 43.2031V35.4773C66.4716 34.5245 70 30.3815 70 25.4297ZM29.2835 4.10156L27.9163 8.20312H17.2007L15.8335 4.10156H29.2835ZM37.5977 65.8984H7.51953C5.63486 65.8984 4.10156 64.3651 4.10156 62.4805V59.0625H41.0156V62.4805C41.0156 64.3651 39.4823 65.8984 37.5977 65.8984ZM41.0156 54.9609H4.10156V7.51953C4.10156 5.63486 5.63486 4.10156 7.51953 4.10156H11.5102L13.7771 10.9024C14.0563 11.7399 14.8399 12.3047 15.7227 12.3047H29.3945C30.2773 12.3047 31.0609 11.7399 31.34 10.9024L33.607 4.10156H37.5977C39.4823 4.10156 41.0156 5.63486 41.0156 7.51953V46.6211H28.0273C26.1427 46.6211 24.6094 45.0878 24.6094 43.2031V39.6227C30.8001 38.6366 35.5469 33.2609 35.5469 26.7969V18.5938C35.5469 17.4612 34.6287 16.543 33.4961 16.543H29.3945C28.262 16.543 27.3438 17.4612 27.3438 18.5938C27.3438 19.7263 28.262 20.6445 29.3945 20.6445H31.4453V26.7969C31.4453 31.697 27.4587 35.6836 22.5586 35.6836C17.6585 35.6836 13.6719 31.697 13.6719 26.7969V20.6445H15.7227C16.8552 20.6445 17.7734 19.7263 17.7734 18.5938C17.7734 17.4612 16.8552 16.543 15.7227 16.543H11.6211C10.4885 16.543 9.57031 17.4612 9.57031 18.5938V26.7969C9.57031 33.2609 14.3171 38.6364 20.5078 39.6227V43.2031C20.5078 47.3494 23.8811 50.7227 28.0273 50.7227H41.0156V54.9609ZM59.7461 31.582C56.3537 31.582 53.5938 28.8221 53.5938 25.4297C53.5938 22.0373 56.3537 19.2773 59.7461 19.2773C63.1385 19.2773 65.8984 22.0373 65.8984 25.4297C65.8984 28.8221 63.1385 31.582 59.7461 31.582Z" fill="#15404E"/>
<path d="M59.7461 27.4805C60.8787 27.4805 61.7969 26.5623 61.7969 25.4297C61.7969 24.2971 60.8787 23.3789 59.7461 23.3789C58.6135 23.3789 57.6953 24.2971 57.6953 25.4297C57.6953 26.5623 58.6135 27.4805 59.7461 27.4805Z" fill="#15404E"/>
</g>
<defs>
<clipPath id="clip0_6474_118">
<rect width="70" height="70" fill="white"/>
</clipPath>
</defs>
</svg>
