<svg width="70" height="70" viewBox="0 0 70 70" fill="none" xmlns="http://www.w3.org/2000/svg">
<g clip-path="url(#clip0_6474_126)">
<path d="M67.9492 32.9492H61.6602V26.7969C61.6602 25.6641 60.7421 24.7461 59.6094 24.7461H40.7999C40.1809 23.0008 38.7961 21.616 37.0508 20.997V16.543H43.2031C44.3359 16.543 45.2539 15.6249 45.2539 14.4922V2.05078C45.2539 0.918045 44.3359 0 43.2031 0H26.7969C25.6641 0 24.7461 0.918045 24.7461 2.05078V14.4922C24.7461 15.6249 25.6641 16.543 26.7969 16.543H32.9492V20.997C31.2039 21.616 29.8191 23.0008 29.2001 24.7461H10.3906C9.25789 24.7461 8.33984 25.6641 8.33984 26.7969V32.9492H2.05078C0.918045 32.9492 0 33.8673 0 35V47.3047C0 48.4374 0.918045 49.3555 2.05078 49.3555H18.5938C19.7265 49.3555 20.6445 48.4374 20.6445 47.3047V45.2539H32.9492V49.5616C28.2746 50.5144 24.7461 54.6576 24.7461 59.6094C24.7461 65.2773 29.331 70 35 70C40.668 70 45.2539 65.2784 45.2539 59.6094C45.2539 54.6576 41.7254 50.5144 37.0508 49.5616V45.2539H49.3555V47.3047C49.3555 48.4374 50.2735 49.3555 51.4062 49.3555H67.9492C69.082 49.3555 70 48.4374 70 47.3047V35C70 33.8673 69.082 32.9492 67.9492 32.9492ZM28.8477 4.10156H41.1523V12.4414H28.8477V4.10156ZM41.1523 59.6094C41.1523 63.0183 38.3352 65.8984 35 65.8984C31.6648 65.8984 28.8477 63.0183 28.8477 59.6094C28.8477 56.217 31.6077 53.457 35 53.457C38.3923 53.457 41.1523 56.217 41.1523 59.6094ZM35 24.7461C36.1306 24.7461 37.0508 25.6663 37.0508 26.7969C37.0508 27.9275 36.1306 28.8477 35 28.8477C33.8694 28.8477 32.9492 27.9275 32.9492 26.7969C32.9492 25.6663 33.8694 24.7461 35 24.7461ZM16.543 45.2539H4.10156V37.0508H16.543V45.2539ZM20.6445 41.1523V35C20.6445 33.8673 19.7265 32.9492 18.5938 32.9492H12.4414V28.8477H29.2001C30.0471 31.2349 32.3265 32.9492 35 32.9492C37.6735 32.9492 39.9529 31.2349 40.7999 28.8477H57.5586V32.9492H51.4062C50.2735 32.9492 49.3555 33.8673 49.3555 35V41.1523H20.6445ZM65.8984 45.2539H53.457V37.0508H65.8984V45.2539Z" fill="#15404E"/>
</g>
<defs>
<clipPath id="clip0_6474_126">
<rect width="70" height="70" fill="white"/>
</clipPath>
</defs>
</svg>
