<svg width="56" height="56" viewBox="0 0 56 56" fill="none" xmlns="http://www.w3.org/2000/svg">
<g clip-path="url(#clip0_6435_1308)">
<path d="M49.8542 40.5789V35.8948C49.8542 34.9887 49.1197 34.2542 48.2136 34.2542H29.6406V31.3849H37.5243C39.7538 31.3849 41.5676 29.571 41.5676 27.3411V9.91495C41.5676 9.47986 41.3949 9.0627 41.0873 8.75514L32.8162 0.480812C32.5087 0.172922 32.0912 0 31.656 0H18.2063C15.9768 0 14.163 1.81398 14.163 4.04381V27.3411C14.163 29.571 15.9768 31.3849 18.2063 31.3849H26.3594V34.2542H7.78641C6.88034 34.2542 6.14578 34.9887 6.14578 35.8948V40.5789C2.63747 41.3352 0 44.4661 0 48.2023C0 52.5021 3.493 56 7.78641 56C12.0798 56 15.5727 52.5021 15.5727 48.2023C15.5727 44.4661 12.9352 41.3353 9.42703 40.5789V37.5354H26.3594V40.5789C22.8511 41.3353 20.2136 44.4662 20.2136 48.2023C20.2136 52.5021 23.7065 56 28 56C32.2935 56 35.7864 52.5021 35.7864 48.2023C35.7864 44.4661 33.1489 41.3352 29.6406 40.5789V37.5354H46.573V40.5789C43.0647 41.3353 40.4273 44.4662 40.4273 48.2023C40.4273 52.5021 43.9203 56 48.2136 56C52.5071 56 56 52.5021 56 48.2023C56 44.4661 53.3625 41.3352 49.8542 40.5789ZM33.2966 5.60262L35.9673 8.27444H33.2966V5.60262ZM17.4442 27.3411V4.04381C17.4442 3.62338 17.7861 3.28125 18.2063 3.28125H30.0153V9.91495C30.0153 10.821 30.7499 11.5556 31.656 11.5556H38.2864V27.341C38.2864 27.7615 37.9445 28.1036 37.5243 28.1036H18.2063C17.7861 28.1036 17.4442 27.7615 17.4442 27.3411ZM12.2916 48.2023C12.2916 50.6927 10.2705 52.7188 7.78641 52.7188C5.30228 52.7188 3.28125 50.6927 3.28125 48.2023C3.28125 45.712 5.30228 43.6859 7.78641 43.6859C10.2705 43.6859 12.2916 45.712 12.2916 48.2023ZM32.5052 48.2023C32.5052 50.6927 30.4842 52.7188 28 52.7188C25.5158 52.7188 23.4948 50.6927 23.4948 48.2023C23.4948 45.712 25.5159 43.6859 28 43.6859C30.4841 43.6859 32.5052 45.712 32.5052 48.2023ZM48.2136 52.7188C45.7295 52.7188 43.7085 50.6927 43.7085 48.2023C43.7085 45.712 45.7296 43.6859 48.2136 43.6859C50.6978 43.6859 52.7188 45.712 52.7188 48.2023C52.7188 50.6927 50.6977 52.7188 48.2136 52.7188Z" fill="#15404E"/>
<path d="M32.3873 15.6394H23.3418C22.4357 15.6394 21.7012 16.374 21.7012 17.28C21.7012 18.1861 22.4357 18.9207 23.3418 18.9207H32.3873C33.2934 18.9207 34.028 18.1861 34.028 17.28C34.028 16.374 33.2934 15.6394 32.3873 15.6394Z" fill="#15404E"/>
<path d="M30.7467 20.6799H24.9824C24.0764 20.6799 23.3418 21.4145 23.3418 22.3206C23.3418 23.2266 24.0764 23.9612 24.9824 23.9612H30.7467C31.6528 23.9612 32.3873 23.2266 32.3873 22.3206C32.3873 21.4145 31.6528 20.6799 30.7467 20.6799Z" fill="#15404E"/>
</g>
<defs>
<clipPath id="clip0_6435_1308">
<rect width="56" height="56" fill="white"/>
</clipPath>
</defs>
</svg>
