<svg width="155" height="40" viewBox="0 0 155 40" fill="none" xmlns="http://www.w3.org/2000/svg">
<path d="M46.0879 12.5871H49.8379V27.7496H46.0879V12.5871ZM51.3254 22.0246C51.3254 18.2746 53.6254 16.0371 57.1754 16.0371C60.7254 16.0371 63.0254 18.2746 63.0254 22.0246C63.0254 25.7746 60.7754 28.0246 57.1754 28.0246C53.5754 28.0246 51.3254 25.8371 51.3254 22.0246ZM59.2629 22.0246C59.2629 19.9621 58.4504 18.7496 57.1754 18.7496C55.9004 18.7496 55.1004 19.9996 55.1004 22.0246C55.1004 24.0496 55.8879 25.2746 57.1754 25.2746C58.4629 25.2746 59.2629 24.1246 59.2629 22.0371V22.0246ZM64.4379 28.4871H68.0379C68.2093 28.8677 68.4989 29.1829 68.8638 29.3856C69.2286 29.5882 69.6493 29.6677 70.0629 29.6121C71.4879 29.6121 72.2379 28.8371 72.2379 27.7121V25.6121H72.1629C71.8641 26.2557 71.3793 26.795 70.771 27.1605C70.1628 27.5259 69.4589 27.7006 68.7504 27.6621C66.0129 27.6621 64.2004 25.5746 64.2004 21.9871C64.2004 18.3996 65.9254 16.1371 68.8004 16.1371C69.5311 16.1085 70.2531 16.3039 70.8698 16.697C71.4864 17.0902 71.9681 17.6625 72.2504 18.3371V16.2496H76.0004V27.6246C76.0004 30.3621 73.5879 32.0621 70.0254 32.0621C66.7129 32.0621 64.6504 30.5746 64.4379 28.4996V28.4871ZM72.2504 22.0121C72.2504 20.1871 71.4129 19.0371 70.0879 19.0371C68.7629 19.0371 67.9504 20.1746 67.9504 22.0121C67.9504 23.8496 68.7504 24.8871 70.0879 24.8871C71.4254 24.8871 72.2504 23.8746 72.2504 22.0246V22.0121ZM77.4129 22.0121C77.4129 18.2621 79.7129 16.0246 83.2629 16.0246C86.8129 16.0246 89.1254 18.2621 89.1254 22.0121C89.1254 25.7621 86.8754 28.0121 83.2629 28.0121C79.6504 28.0121 77.4129 25.8371 77.4129 22.0246V22.0121ZM85.3504 22.0121C85.3504 19.9496 84.5379 18.7371 83.2629 18.7371C81.9879 18.7371 81.2504 19.9996 81.2504 22.0371C81.2504 24.0746 82.0379 25.2871 83.3129 25.2871C84.5879 25.2871 85.3504 24.1246 85.3504 22.0371V22.0121ZM90.5504 13.5246C90.5405 13.146 90.6434 12.773 90.8458 12.4529C91.0483 12.1328 91.3411 11.88 91.6874 11.7265C92.0336 11.5731 92.4176 11.5259 92.7908 11.5909C93.1639 11.656 93.5093 11.8304 93.7831 12.092C94.0571 12.3536 94.2471 12.6906 94.3293 13.0604C94.4114 13.4301 94.3819 13.8159 94.2444 14.1689C94.107 14.5217 93.8679 14.826 93.5574 15.0429C93.247 15.2597 92.879 15.3796 92.5004 15.3871C92.2494 15.4044 91.9975 15.3695 91.7606 15.2847C91.5236 15.2 91.3069 15.0672 91.1238 14.8946C90.9406 14.7221 90.7951 14.5135 90.6965 14.282C90.5978 14.0506 90.548 13.8012 90.5504 13.5496V13.5246ZM90.5504 16.2746H94.3004V27.7496H90.5504V16.2746ZM107.913 22.0121C107.913 25.7621 106.25 27.8996 103.4 27.8996C102.67 27.9465 101.942 27.7679 101.316 27.3879C100.69 27.0077 100.196 26.4446 99.9004 25.7746H99.8254V31.4246H96.0754V16.2496H99.8254V18.2996H99.9004C100.182 17.6185 100.667 17.0407 101.289 16.6449C101.91 16.249 102.639 16.0542 103.375 16.0871C106.25 16.1371 107.963 18.2871 107.963 22.0371L107.913 22.0121ZM104.163 22.0121C104.163 20.1871 103.325 19.0246 102.013 19.0246C100.7 19.0246 99.8629 20.1996 99.8504 22.0121C99.8379 23.8246 100.7 24.9871 102.013 24.9871C103.325 24.9871 104.163 23.8496 104.163 22.0371V22.0121ZM114.35 16.0121C117.463 16.0121 119.35 17.4871 119.438 19.8496H116.025C116.025 19.0371 115.35 18.5246 114.313 18.5246C113.275 18.5246 112.813 18.9246 112.813 19.5121C112.813 20.0996 113.225 20.2871 114.063 20.4621L116.463 20.9496C118.75 21.4371 119.725 22.3621 119.725 24.0996C119.725 26.4746 117.563 27.9996 114.375 27.9996C111.188 27.9996 109.1 26.4746 108.938 24.1371H112.55C112.663 24.9871 113.338 25.4871 114.438 25.4871C115.538 25.4871 116.038 25.1246 116.038 24.5246C116.038 23.9246 115.688 23.7996 114.788 23.6121L112.625 23.1496C110.388 22.6871 109.213 21.4996 109.213 19.7496C109.238 17.4996 111.25 16.0371 114.35 16.0371V16.0121ZM132.238 27.7246H128.625V25.5871H128.55C128.352 26.3047 127.914 26.9329 127.309 27.3672C126.704 27.8015 125.969 28.0159 125.225 27.9746C124.656 28.007 124.086 27.9167 123.554 27.7099C123.022 27.503 122.541 27.1845 122.143 26.7756C121.744 26.3669 121.439 25.8772 121.246 25.3401C121.053 24.803 120.978 24.2307 121.025 23.6621V16.2496H124.775V22.7996C124.775 24.1621 125.475 24.8871 126.638 24.8871C126.91 24.8876 127.18 24.83 127.429 24.7179C127.677 24.6057 127.899 24.4417 128.079 24.237C128.258 24.0321 128.393 23.7912 128.472 23.5305C128.55 23.2696 128.574 22.9949 128.538 22.7246V16.2496H132.288L132.238 27.7246ZM134.05 16.2496H137.675V18.4621H137.75C137.949 17.754 138.378 17.1317 138.968 16.693C139.558 16.2542 140.278 16.0235 141.013 16.0371C141.762 15.9772 142.504 16.2011 143.095 16.6644C143.685 17.1276 144.08 17.7961 144.2 18.5371H144.275C144.502 17.7882 144.972 17.1362 145.61 16.6836C146.248 16.231 147.019 16.0035 147.8 16.0371C148.31 16.02 148.818 16.1104 149.29 16.3024C149.764 16.4942 150.19 16.7836 150.544 17.1514C150.898 17.5192 151.17 17.9574 151.344 18.4372C151.517 18.9171 151.588 19.4282 151.55 19.9371V27.7496H147.8V20.9371C147.8 19.6871 147.238 19.1121 146.188 19.1121C145.954 19.1101 145.722 19.1584 145.508 19.2536C145.294 19.3489 145.103 19.4889 144.948 19.6642C144.793 19.8396 144.677 20.0461 144.608 20.27C144.539 20.494 144.52 20.73 144.55 20.9621V27.7496H140.988V20.8871C140.988 19.7371 140.425 19.1121 139.4 19.1121C139.164 19.1122 138.929 19.1625 138.714 19.2596C138.498 19.3569 138.304 19.4987 138.148 19.6759C137.99 19.853 137.873 20.0615 137.802 20.2876C137.732 20.5136 137.709 20.752 137.738 20.9871V27.7496H133.988L134.05 16.2496Z" fill="#15404E"/>
<path d="M35.6 13.2751C34.9639 11.8206 34.122 10.465 33.1 9.25011C31.5894 7.40053 29.7041 5.89185 27.5684 4.82336C25.4326 3.75488 23.0947 3.15082 20.7087 3.05093C18.3227 2.95105 15.9426 3.3576 13.725 4.24385C11.5075 5.13008 9.50271 6.47592 7.84275 8.19277C6.18277 9.90961 4.90521 11.9585 4.09415 14.2047C3.28308 16.4509 2.9569 18.8434 3.13707 21.2246C3.31726 23.606 3.9997 25.9221 5.1395 28.0206C6.2793 30.1192 7.85061 31.9526 9.75001 33.4001C10.9688 34.3475 12.3154 35.1176 13.75 35.6876C15.7612 36.5119 17.9139 36.9364 20.0875 36.9376C24.5742 36.9277 28.874 35.1392 32.0444 31.9642C35.2146 28.7892 36.9967 24.4869 37 20.0001C37.0032 17.6857 36.5266 15.3959 35.6 13.2751ZM20.075 6.4876C22.027 6.4874 23.9554 6.91402 25.725 7.7376C25.2935 7.92406 24.8397 8.0543 24.375 8.12511C22.8457 8.34647 21.4291 9.05645 20.3365 10.1491C19.2439 11.2417 18.5339 12.6584 18.3125 14.1876C18.2154 15.0452 17.8252 15.8431 17.2081 16.4466C16.591 17.0501 15.7846 17.4221 14.925 17.5001C13.3957 17.7215 11.9791 18.4315 10.8865 19.5241C9.79386 20.6167 9.08387 22.0334 8.86251 23.5626C8.78756 24.3781 8.43962 25.1445 7.87501 25.7376C6.90082 23.6792 6.4632 21.4077 6.60285 19.1347C6.7425 16.8617 7.45488 14.661 8.67372 12.7372C9.89255 10.8136 11.5782 9.2295 13.5739 8.13241C15.5695 7.03532 17.8102 6.46091 20.0875 6.4626L20.075 6.4876ZM9.73751 28.7501C9.88751 28.6126 10.0375 28.4876 10.1875 28.3376C11.2996 27.2595 12.0134 25.8362 12.2125 24.3001C12.2932 23.4366 12.6787 22.6301 13.3 22.0251C13.8979 21.4029 14.7025 21.0205 15.5625 20.9501C17.0917 20.7287 18.5084 20.0187 19.601 18.9261C20.6936 17.8335 21.4036 16.4169 21.625 14.8876C21.6791 13.9845 22.0666 13.1336 22.7125 12.5001C23.3251 11.8899 24.1374 11.5215 25 11.4626C26.4049 11.2693 27.7151 10.6447 28.75 9.67511C29.9284 10.6527 30.9266 11.8287 31.7 13.1501C31.6525 13.2142 31.598 13.273 31.5375 13.3251C30.9409 13.9529 30.1372 14.3436 29.275 14.4251C27.7441 14.6426 26.3254 15.3514 25.232 16.4446C24.1387 17.538 23.43 18.9567 23.2125 20.4876C23.1244 21.3481 22.7415 22.1517 22.1287 22.7622C21.5159 23.3729 20.7109 23.7527 19.85 23.8376C18.3162 24.0572 16.8944 24.7659 15.7954 25.858C14.6965 26.9502 13.9791 28.3677 13.75 29.9001C13.6827 30.511 13.4729 31.0976 13.1375 31.6126C11.855 30.8511 10.7064 29.8841 9.73751 28.7501ZM20.075 33.5751C18.8066 33.5765 17.5442 33.3997 16.325 33.0501C16.7421 32.2726 17.0132 31.4252 17.125 30.5501C17.2126 29.6915 17.5937 28.8894 18.204 28.2791C18.8142 27.6689 19.6164 27.2877 20.475 27.2001C22.0065 26.9812 23.426 26.2724 24.5211 25.1795C25.6161 24.0867 26.328 22.6686 26.55 21.1376C26.6376 20.279 27.0187 19.4769 27.629 18.8666C28.2392 18.2564 29.0414 17.8752 29.9 17.7876C31.0525 17.6377 32.151 17.2086 33.1 16.5376C33.627 18.535 33.6894 20.6265 33.2825 22.6517C32.8756 24.677 32.0101 26.5822 30.7526 28.2211C29.4951 29.8599 27.879 31.189 26.028 32.1062C24.1771 33.0235 22.1407 33.5046 20.075 33.5126V33.5751Z" fill="#15404E"/>
</svg>
