<svg width="181" height="40" viewBox="0 0 181 40" fill="none" xmlns="http://www.w3.org/2000/svg">
<g clip-path="url(#clip0_6435_1170)">
<path fill-rule="evenodd" clip-rule="evenodd" d="M57.4502 2.66213C57.4502 1.30662 58.5582 0.207764 59.9251 0.207764H64.2366C65.2095 0.207764 66.1523 0.542104 66.9045 1.15387L68.2161 2.22049L68.2489 2.25015C68.2792 2.24003 68.3094 2.23014 68.3398 2.22049C70.706 1.46889 73.5769 1.32595 76.5071 1.32595C79.4372 1.32595 82.3081 1.46889 84.6743 2.22049C84.7047 2.23014 84.735 2.24003 84.7652 2.25015L84.798 2.22049L86.1096 1.15387C86.8618 0.542104 87.8047 0.207764 88.7775 0.207764H93.089C94.4559 0.207764 95.5639 1.30662 95.5639 2.66213V4.17937C95.5639 5.35328 95.0653 6.47288 94.1903 7.26351L93.1322 8.2196C92.6157 8.68635 91.9957 9.02604 91.3223 9.21123L91.072 9.28007C92.0524 11.6 92.5941 14.0798 92.5941 16.0859C92.5941 24.1555 87.5593 27.6407 83.123 30.7115C79.6294 33.1299 76.5071 35.2911 76.5071 39.2322C76.5071 35.2911 73.3847 33.1299 69.8911 30.7115C65.4549 27.6407 60.4201 24.1555 60.4201 16.0859C60.4201 14.0798 60.9617 11.6 61.9421 9.28007L61.6918 9.21123C61.0184 9.02604 60.3984 8.68635 59.8819 8.2196L58.8238 7.26351C57.9488 6.47288 57.4502 5.35328 57.4502 4.17937V2.66213ZM79.7245 22.6831C79.7245 23.0687 79.555 23.4383 79.2533 23.711C78.9516 23.9836 78.5424 24.1368 78.1157 24.1368C77.7474 24.1368 77.392 24.0225 77.1077 23.8159C77.5917 25.1008 78.8304 26.3182 80.7144 24.3604C82.3777 22.5412 80.6405 18.7042 78.948 16.4273C78.3839 15.6684 77.4578 15.3031 76.5071 15.3031C75.5563 15.3031 74.6302 15.6684 74.0661 16.4273C72.3736 18.7042 70.6364 22.5412 72.2997 24.3604C74.1837 26.3182 75.4224 25.1008 75.9065 23.8159C75.6221 24.0225 75.2667 24.1368 74.8984 24.1368C74.4717 24.1368 74.0625 23.9836 73.7608 23.711C73.4592 23.4383 73.2896 23.0687 73.2896 22.6831H79.7245ZM70.3465 11.325H65.8649L69.3969 14.1296C70.1741 14.7466 71.3101 14.5494 71.791 13.7138C72.3983 12.6587 71.5917 11.325 70.3465 11.325ZM82.6676 11.325H87.1492L83.6172 14.1296C82.84 14.7466 81.704 14.5494 81.2231 13.7138C80.6159 12.6587 81.4224 11.325 82.6676 11.325Z" fill="#15404E"/>
<path d="M100.902 27.8497H104.873V12.8351H100.902V27.8497ZM100.902 10.4936H104.873V6.92285H100.902V10.4936Z" fill="#15404E"/>
<path d="M107.432 32.7672H111.402V26.1526H111.46C112.307 27.4404 113.679 28.2892 115.781 28.2892C119.635 28.2892 122.262 25.216 122.262 20.3575C122.262 15.6746 119.722 12.4258 115.752 12.4258C113.708 12.4258 112.307 13.3916 111.344 14.7087H111.256V12.8355H107.432V32.7672ZM114.934 24.9819C112.57 24.9819 111.314 23.1965 111.314 20.4746C111.314 17.7819 112.307 15.6453 114.788 15.6453C117.241 15.6453 118.233 17.6355 118.233 20.4746C118.233 23.3136 116.949 24.9819 114.934 24.9819Z" fill="#15404E"/>
<path d="M130.182 28.2892C133.919 28.2892 136.488 26.4746 136.488 23.4599C136.488 19.9477 133.715 19.2453 131.204 18.7185C129.073 18.2794 127.088 18.1624 127.088 16.8746C127.088 15.7916 128.109 15.2063 129.657 15.2063C131.35 15.2063 132.372 15.7916 132.547 17.4014H136.138C135.846 14.3868 133.656 12.4258 129.715 12.4258C126.299 12.4258 123.614 13.977 123.614 17.2258C123.614 20.5038 126.241 21.2355 128.927 21.7624C130.97 22.1721 132.868 22.3185 132.868 23.7526C132.868 24.8063 131.875 25.4794 130.124 25.4794C128.343 25.4794 127.117 24.7185 126.854 22.9916H123.176C123.409 26.1819 125.832 28.2892 130.182 28.2892Z" fill="#15404E"/>
<path d="M151.562 27.8496V12.835H147.592V21.4984C147.592 23.4886 146.453 24.8935 144.585 24.8935C142.891 24.8935 142.103 23.9276 142.103 22.1715V12.835H138.162V22.8447C138.162 26.1228 140.03 28.2594 143.359 28.2594C145.46 28.2594 146.628 27.4691 147.65 26.0935H147.738V27.8496H151.562Z" fill="#15404E"/>
<path d="M154.13 27.8502H158.1V19.1282C158.1 17.138 159.18 15.8502 160.786 15.8502C162.246 15.8502 163.092 16.7282 163.092 18.4258V27.8502H167.063V19.1282C167.063 17.138 168.084 15.8502 169.748 15.8502C171.208 15.8502 172.055 16.7282 172.055 18.4258V27.8502H176.025V17.7526C176.025 14.4746 174.244 12.4258 171.091 12.4258C169.194 12.4258 167.617 13.4209 166.596 15.0599H166.537C165.807 13.4794 164.289 12.4258 162.392 12.4258C160.319 12.4258 158.859 13.4794 158.042 14.855H157.954V12.8355H154.13V27.8502Z" fill="#15404E"/>
<path d="M0.666016 27.8497H4.63634V6.92285H0.666016V27.8497Z" fill="#15404E"/>
<path d="M14.3444 28.2892C18.9862 28.2892 22.1683 24.8355 22.1683 20.3575C22.1683 15.8794 18.9862 12.4258 14.3444 12.4258C9.70261 12.4258 6.52051 15.8794 6.52051 20.3575C6.52051 24.8355 9.70261 28.2892 14.3444 28.2892ZM14.3444 25.2453C11.8922 25.2453 10.5493 23.2843 10.5493 20.3575C10.5493 17.4307 11.8922 15.4404 14.3444 15.4404C16.7675 15.4404 18.1396 17.4307 18.1396 20.3575C18.1396 23.2843 16.7675 25.2453 14.3444 25.2453Z" fill="#15404E"/>
<path d="M30.6108 32.9721C32.8295 32.9721 34.7563 32.4453 36.0116 31.2746C37.1209 30.2502 37.7924 28.816 37.7924 26.7087V12.8355H33.968V14.416H33.9097C33.0047 13.1575 31.6326 12.4258 29.7642 12.4258C25.969 12.4258 23.2832 15.2941 23.2832 19.7721C23.2832 24.3087 26.5529 26.9429 29.8809 26.9429C31.7785 26.9429 32.9171 26.1819 33.7929 25.1868H33.8805V26.8258C33.8805 28.8746 32.8003 29.9575 30.5524 29.9575C28.7132 29.9575 27.8666 29.2258 27.5455 28.2892H23.6043C24.013 31.216 26.5237 32.9721 30.6108 32.9721ZM30.5524 23.7526C28.5088 23.7526 27.1659 22.2599 27.1659 19.7136C27.1659 17.1965 28.5088 15.616 30.5232 15.616C32.9171 15.616 34.0848 17.4892 34.0848 19.6843C34.0848 21.9087 33.063 23.7526 30.5524 23.7526Z" fill="#15404E"/>
<path d="M47.443 28.2892C52.0848 28.2892 55.2669 24.8355 55.2669 20.3575C55.2669 15.8794 52.0848 12.4258 47.443 12.4258C42.8012 12.4258 39.6191 15.8794 39.6191 20.3575C39.6191 24.8355 42.8012 28.2892 47.443 28.2892ZM47.443 25.2453C44.9908 25.2453 43.6479 23.2843 43.6479 20.3575C43.6479 17.4307 44.9908 15.4404 47.443 15.4404C49.8661 15.4404 51.2382 17.4307 51.2382 20.3575C51.2382 23.2843 49.8661 25.2453 47.443 25.2453Z" fill="#15404E"/>
<path d="M175.847 9.5574C175.847 8.88388 176.391 8.33789 177.063 8.33789H179.496C180.167 8.33789 180.712 8.88388 180.712 9.5574C180.712 10.2309 180.167 10.7769 179.496 10.7769H177.063C176.391 10.7769 175.847 10.2309 175.847 9.5574Z" fill="#15404E"/>
</g>
<defs>
<clipPath id="clip0_6435_1170">
<rect width="181" height="40" fill="white"/>
</clipPath>
</defs>
</svg>
