<svg width="118" height="45" viewBox="0 0 118 45" fill="none" xmlns="http://www.w3.org/2000/svg">
<path d="M24.0488 22.8195C24.0488 21.1766 25.0262 20.0322 26.5198 20.0322C28.0135 20.0322 28.9907 21.1766 28.9907 22.8195C28.9907 24.4439 28.0135 25.6067 26.5198 25.6067C25.0262 25.6067 24.0488 24.4439 24.0488 22.8195Z" fill="#15404E"/>
<path d="M36.6805 19.958C35.2606 19.958 34.3018 21.0655 34.3018 22.5791C34.3018 24.1112 35.279 25.2556 36.6805 25.2556C38.2294 25.2556 39.2621 24.0927 39.2621 22.5791C39.2621 21.084 38.2294 19.958 36.6805 19.958Z" fill="#15404E"/>
<path d="M44.9121 22.8195C44.9121 21.1766 45.8895 20.0322 47.3831 20.0322C48.8768 20.0322 49.854 21.1766 49.854 22.8195C49.854 24.4439 48.8768 25.6067 47.3831 25.6067C45.8895 25.6067 44.9121 24.4439 44.9121 22.8195Z" fill="#15404E"/>
<path d="M59.9385 22.838C59.9385 21.1952 60.9342 20.0508 62.5016 20.0508C64.069 20.0508 65.0094 21.2137 65.0094 22.838C65.0094 24.4624 64.069 25.6068 62.5016 25.6068C60.9342 25.6068 59.9385 24.4808 59.9385 22.838Z" fill="#15404E"/>
<path fill-rule="evenodd" clip-rule="evenodd" d="M59.0003 42.8532C90.3316 42.8532 115.731 33.9318 115.731 22.9266C115.731 11.9214 90.3316 3 59.0003 3C27.6688 3 2.26953 11.9214 2.26953 22.9266C2.26953 33.9318 27.6688 42.8532 59.0003 42.8532ZM20.4038 28.1198V14.3866H18.1541V28.1198H20.4038ZM21.7807 23.5421C21.7807 26.3478 23.6617 28.3414 26.5199 28.3414C29.378 28.3414 31.2589 26.3478 31.2589 23.5421C31.2589 20.7364 29.378 18.7429 26.5199 18.7429C23.6617 18.7429 21.7807 20.7364 21.7807 23.5421ZM36.2936 27.9353C33.7304 27.9353 32.0155 26.0156 32.0155 23.3575C32.0155 20.681 33.7673 18.7059 36.3673 18.7059C37.7135 18.7059 38.8568 19.2782 39.4099 20.238L39.539 19.0013H41.5306V27.6584C41.5306 30.6672 39.6497 32.6052 36.6993 32.6052C34.1914 32.6052 32.3659 31.0548 32.0709 28.6736H34.339C34.468 29.8734 35.427 30.5564 36.8283 30.5564C38.3958 30.5564 39.3362 29.5596 39.3362 28.0644V26.514C38.7646 27.3999 37.6213 27.9353 36.2936 27.9353ZM42.6438 23.5421C42.6438 26.3478 44.5248 28.3414 47.383 28.3414C50.2412 28.3414 52.122 26.3478 52.122 23.5421C52.122 20.7364 50.2412 18.7429 47.383 18.7429C44.5248 18.7429 42.6438 20.7364 42.6438 23.5421ZM55.9028 15.7895C55.9028 16.5463 55.2943 17.137 54.5567 17.137C53.8007 17.137 53.229 16.5463 53.229 15.7895C53.229 15.0511 53.8007 14.4604 54.5567 14.4604C55.2943 14.4604 55.9028 15.0511 55.9028 15.7895ZM55.6815 19.0013V28.1198H53.4319V19.0013H55.6815ZM57.6524 32.3468H59.8468V26.8647C60.4184 27.806 61.6539 28.3598 63.0185 28.3598C65.7107 28.3598 67.315 26.2924 67.2781 23.4498C67.2228 20.5887 65.5816 18.7244 63 18.7244C61.6171 18.7244 60.3631 19.3335 59.8099 20.3857L59.6808 19.0013H57.6524V32.3468ZM71.5004 28.3598C69.3245 28.3598 67.9231 27.1969 67.8493 25.3879H69.8962C69.8962 26.1817 70.4678 26.6431 71.4635 26.6431C72.2934 26.6431 72.9757 26.3109 72.9757 25.591C72.9757 25.0741 72.6068 24.7973 72.0167 24.6312L70.431 24.225C68.6791 23.7636 67.9968 22.7853 67.9968 21.6039C67.9968 19.8688 69.4536 18.7244 71.4082 18.7244C73.3813 18.7244 74.7274 19.8688 74.8012 21.6778H72.7544C72.7544 20.8841 72.2011 20.4042 71.3529 20.4042C70.5416 20.4042 70.0437 20.8471 70.0437 21.4748C70.0437 22.0654 70.5047 22.3054 71.1869 22.4899L72.7913 22.8776C74.2849 23.2467 75.0962 24.1328 75.0962 25.4434C75.0962 27.2153 73.6395 28.3598 71.5004 28.3598ZM79.7628 28.3598C80.9978 28.3598 82.1778 27.7875 82.7128 26.9385L82.8607 28.1198H84.9627V19.0013H82.7128V23.7821C82.7128 25.4249 82.0858 26.3478 80.6108 26.3478C79.4678 26.3478 78.6748 25.794 78.6748 23.9113V19.0013H76.4249V24.705C76.4249 26.8831 77.605 28.3598 79.7628 28.3598ZM89.1981 22.8776V28.1198H86.9482V19.0013H89.0132L89.1241 20.035C89.659 19.2228 90.618 18.7244 91.6871 18.7244C93.1991 18.7244 94.195 19.3889 94.6929 20.4595C95.1358 19.3889 96.2238 18.7244 97.6067 18.7244C99.8196 18.7244 100.981 20.0535 100.981 22.1577V28.1198H98.8048V22.6745C98.8048 21.3825 98.1047 20.6995 97.0167 20.6995C95.9469 20.6995 95.0989 21.4009 95.0989 22.896V28.1198H92.9041V22.6745C92.9041 21.3825 92.2039 20.6995 91.134 20.6995C90.065 20.6995 89.1981 21.4009 89.1981 22.8776Z" fill="#15404E"/>
</svg>
