<svg width="163" height="42" viewBox="0 0 163 42" fill="none" xmlns="http://www.w3.org/2000/svg">
<path d="M30.2102 17.7188C33.3482 17.7188 34.0542 19.0817 34.0542 20.7817C34.0542 22.5837 33.2002 23.8748 30.2232 23.8748C27.2652 23.8748 26.4102 22.6587 26.4102 20.7817C26.4102 18.9347 27.3422 17.7188 30.2102 17.7188Z" fill="#15404E"/>
<path d="M63.0041 17.7188C66.1421 17.7188 66.8481 19.0817 66.8481 20.7817C66.8481 22.5837 65.9931 23.8748 63.0171 23.8748C60.0601 23.8748 59.2041 22.6587 59.2041 20.7817C59.2041 18.9347 60.1361 17.7188 63.0041 17.7188Z" fill="#15404E"/>
<path fill-rule="evenodd" clip-rule="evenodd" d="M2.42676 38.5001V3.04712H161.005V38.5001H2.42676ZM78.0048 36.5001H159.005V5.04712H78.0048V36.5001ZM30.225 26.8931C35.796 26.8931 38.138 24.4901 38.138 20.7371C38.138 16.9231 35.5 14.6561 30.225 14.6561C25.031 14.6561 22.297 17.1181 22.297 20.7371C22.297 24.8211 25.165 26.8931 30.225 26.8931ZM10.856 14.9261V26.7131H22.1V23.5741H14.924V14.9261H10.856ZM50.722 26.7131L50.617 25.5711C49.2561 26.5423 47.5997 27.0097 45.932 26.8931C43.425 26.8931 41.337 26.1421 40.166 24.6261C39.3936 23.5193 39.0036 22.1907 39.055 20.8421C39.0111 19.5218 39.4146 18.2254 40.2 17.1631C41.385 15.6921 43.533 14.7161 46.731 14.7161C50.41 14.7161 52.572 15.8421 53.502 17.7341C53.7016 18.1797 53.8189 18.6577 53.848 19.1451H49.956C49.8579 18.8489 49.6754 18.5879 49.431 18.3941C48.6557 17.8801 47.7299 17.6424 46.803 17.7191C46.2593 17.6532 45.7077 17.7034 45.1849 17.8665C44.6621 18.0296 44.1798 18.3018 43.77 18.6651C43.3046 19.3021 43.0861 20.0863 43.155 20.8721C43.101 21.6218 43.3019 22.3678 43.725 22.9891C44.1385 23.3744 44.6301 23.6662 45.1663 23.845C45.7026 24.0237 46.2709 24.0852 46.833 24.0251C47.9493 24.1159 49.0576 23.7716 49.926 23.0641C50.1125 22.8309 50.2411 22.5567 50.301 22.2641H46.113V19.7311H53.95V26.7131H50.722ZM63.019 26.8931C68.589 26.8931 70.932 24.4901 70.932 20.7371C70.932 16.9231 68.2899 14.6561 63.019 14.6561C57.825 14.6561 55.091 17.1181 55.091 20.7371C55.091 24.8211 57.959 26.8931 63.019 26.8931Z" fill="#15404E"/>
<path d="M84.8574 26.6679V14.8809H87.7574V26.6679H84.8574Z" fill="#15404E"/>
<path d="M102.649 21.7426C101.914 22.7036 100.649 23.1426 98.866 23.1536C98.49 23.1536 93.505 23.1386 93.505 23.1386V26.6676H90.667V14.8806H98.867C99.5242 14.8111 100.189 14.8808 100.817 15.0851C101.446 15.2895 102.024 15.6239 102.515 16.0666C103.163 16.9108 103.478 17.9634 103.401 19.0246C103.467 19.9898 103.202 20.9487 102.649 21.7426ZM100.322 17.8996C100.022 17.4496 99.375 17.1996 98.28 17.1996H93.49V20.7876H98.249C99.42 20.7876 100.037 20.5476 100.322 20.0816C100.491 19.7533 100.564 19.3836 100.532 19.0156C100.557 18.6318 100.485 18.2479 100.322 17.8996Z" fill="#15404E"/>
<path d="M111.764 26.8479C106.418 26.8479 104.782 24.8479 104.782 22.8689H107.815C107.815 23.8449 109.151 24.5809 111.899 24.5809C114.631 24.5809 115.352 24.0999 115.352 23.3189C115.352 22.4479 114.812 22.1779 112.274 21.8929C111.774 21.8479 110.413 21.6829 109.902 21.6079C106.302 21.2019 104.916 20.1359 104.916 18.2289C104.916 16.2169 106.944 14.7009 111.343 14.7009C116.118 14.7009 117.95 16.5779 117.95 18.5299H114.95C114.95 17.5389 113.824 16.9679 111.166 16.9679C108.433 16.9679 107.848 17.3429 107.848 18.0789C107.848 18.8449 108.448 19.0849 111.348 19.4299C112.009 19.5209 113.48 19.6859 113.885 19.7299C116.949 20.0449 118.33 21.1559 118.33 23.1229C118.325 25.4659 116.223 26.8479 111.764 26.8479Z" fill="#15404E"/>
<path d="M126.87 26.8329C122.952 26.8329 120.399 25.2859 120.399 22.0329V14.8809H123.266V22.0729C123.266 23.5599 124.483 24.5499 126.99 24.5499C129.257 24.5499 130.609 23.6199 130.609 22.0729V14.8809H133.447V22.2999C133.447 25.2569 131.074 26.8329 126.87 26.8329Z" fill="#15404E"/>
<path d="M148.987 26.6681V18.8001L145.308 26.6681H142.516L138.942 18.8001V26.6681H136.242V14.8811H139.9L143.954 23.8601L148.098 14.8811H151.698V26.6681H148.987Z" fill="#15404E"/>
</svg>
