<svg width="23" height="23" viewBox="0 0 23 23" fill="none" xmlns="http://www.w3.org/2000/svg">
<path d="M16.7782 8.23625C15.1169 8.23625 13.6224 9.0763 12.5854 9.86561C13.3748 8.82781 14.2149 7.33343 14.2149 5.67311C14.2149 2.53992 11.2259 0 11.2259 0C11.2259 0 8.2369 2.53992 8.2369 5.67311C8.2369 7.33429 9.07702 8.82867 9.8664 9.86561C8.82851 9.0763 7.33402 8.23625 5.67357 8.23625C2.54012 8.23625 0 11.225 0 11.225C0 11.225 2.54012 14.2137 5.67357 14.2137C7.33488 14.2137 8.82937 13.3737 9.8664 12.5844C9.07702 13.6222 8.2369 15.1166 8.2369 16.7769C8.2369 19.9101 11.2259 22.45 11.2259 22.45C11.2259 22.45 14.2149 19.9101 14.2149 16.7769C14.2149 15.1157 13.3748 13.6213 12.5854 12.5844C13.6233 13.3737 15.1178 14.2137 16.7782 14.2137C19.9117 14.2137 22.4518 11.225 22.4518 11.225C22.4518 11.225 19.9117 8.23625 16.7782 8.23625Z" fill="#15404E"/>
</svg>
